<svg xmlns="http://www.w3.org/2000/svg" data-name="Layer 1" viewBox="0 0 512 640" x="0px" y="0px"><title>Reply</title><path d="M512,396v26c-2.56,7-5.39,13.86-11.49,18.8-17.37,14.07-42.42,7.36-51.24-14.94-9.34-23.61-26.08-39.35-48.23-50.17-30.29-14.79-62.86-20.66-96.07-22.49C279,351.8,253,352.35,227.05,352a22.87,22.87,0,0,0-3.06.39c0,20.74.07,41.21-.07,61.67a39.33,39.33,0,0,1-1.57,11.29c-6.62,21.23-34.36,32.23-55,11.38q-76-76.61-152.67-152.61C8.2,277.75,2.45,271,0,262V250c2.45-9.19,8.44-16,15-22.5q43.55-43.38,87-86.86,33.06-33,66.14-66c10.28-10.22,22.43-13.94,36.05-8S224.07,83.63,224,98.46c-.09,18.66,0,37.32,0,56V160c2.8,0,4.94,0,7.08,0,6,.09,57.44.72,105.29,13,27.34,7,72.58,18.67,108.62,49.75C511,279.71,512.31,372.59,512,396Z"/></svg>