<?xml version="1.0" standalone="no"?>
<!DOCTYPE svg PUBLIC "-//W3C//DTD SVG 20010904//EN"
 "http://www.w3.org/TR/2001/REC-SVG-20010904/DTD/svg10.dtd">
<svg version="1.0" xmlns="http://www.w3.org/2000/svg"
 width="640.000000pt" height="640.000000pt" viewBox="0 0 640.000000 640.000000"
 preserveAspectRatio="xMidYMid meet">
<metadata>
Created by potrace 1.11, written by Peter Selinger 2001-2013
</metadata>
<g transform="translate(0.000000,640.000000) scale(0.100000,-0.100000)"
fill="#000000" stroke="none">
<path d="M2548 5765 c-2 -2 -21 -6 -42 -9 -95 -15 -102 -21 -972 -891 -938
-938 -894 -887 -894 -1025 0 -137 -43 -87 896 -1027 463 -464 849 -843 858
-843 9 0 16 -4 16 -9 0 -14 112 -39 165 -37 55 3 135 25 135 37 0 4 8 10 19
14 29 9 112 98 117 125 0 3 5 16 11 30 13 30 25 96 23 125 -2 24 -2 23 0 112
1 40 -1 77 -4 82 -4 5 -2 12 2 15 5 3 6 22 3 43 -4 21 -4 57 0 81 3 23 3 45
-1 47 -4 3 -4 22 0 44 4 22 4 45 -1 52 -4 7 -5 17 -3 21 3 5 5 36 5 69 l0 61
50 -4 c27 -1 49 1 49 5 0 5 5 5 11 2 5 -4 164 -9 352 -11 387 -5 432 -7 637
-35 99 -14 109 -15 150 -23 19 -4 42 -8 50 -10 8 -2 22 -6 30 -9 8 -3 39 -11
69 -18 29 -6 90 -25 135 -41 44 -16 86 -31 91 -32 72 -22 229 -103 310 -161
113 -81 235 -221 282 -325 95 -211 158 -272 302 -297 45 -7 47 -7 95 1 97 16
183 81 232 176 l29 55 0 275 c-1 294 -6 362 -40 560 -8 47 -24 122 -36 165
-11 44 -22 88 -24 97 -7 34 -67 203 -76 212 -5 6 -9 16 -9 23 0 14 -78 176
-119 247 -24 43 -121 188 -130 196 -3 3 -31 34 -61 70 -68 80 -61 73 -145 149
-72 65 -228 181 -244 181 -5 0 -11 3 -13 8 -9 20 -242 135 -389 190 -91 34
-235 81 -349 112 -76 21 -282 71 -308 74 -15 2 -67 11 -117 20 -49 8 -108 18
-130 20 -22 3 -62 7 -90 11 -129 15 -252 25 -386 30 -48 1 -92 6 -97 9 -6 3
-13 3 -16 -2 -3 -5 -24 -6 -48 -3 -39 5 -43 9 -43 33 -1 15 -3 30 -7 33 -3 3
-2 23 2 45 4 22 4 40 0 40 -4 0 -4 20 0 45 4 25 3 48 -2 51 -4 3 -6 10 -3 15
4 5 6 30 5 56 0 27 -1 57 0 68 0 11 0 34 -1 50 0 17 0 37 0 45 3 132 -6 249
-20 266 -6 8 -9 14 -5 14 3 0 -7 21 -24 48 -33 53 -82 95 -138 119 -39 17
-139 43 -144 38z"/>
</g>
</svg>
